<?xml version="1.0" standalone="no"?>
<!DOCTYPE svg PUBLIC "-//W3C//DTD SVG 20010904//EN"
 "http://www.w3.org/TR/2001/REC-SVG-20010904/DTD/svg10.dtd">
<svg version="1.0" xmlns="http://www.w3.org/2000/svg"
 width="50px" height="50px" viewBox="0 0 250.000000 250.000000"
 preserveAspectRatio="xMidYMid meet">

<g transform="translate(0.000000,250.000000) scale(0.100000,-0.100000)"
fill="#000000" stroke="none">
<path d="M1229 2198 c-16 -44 -22 -49 -84 -74 l-40 -16 54 -27 c47 -22 57 -32
70 -69 8 -23 20 -41 25 -39 5 2 16 22 25 45 12 34 23 45 63 62 26 11 48 23 48
26 0 2 -20 13 -45 24 -37 16 -50 28 -66 65 -11 25 -23 45 -27 45 -5 0 -15 -19
-23 -42z"/>
<path d="M761 2121 c-76 -76 -121 -193 -105 -277 l7 -37 22 61 c21 57 81 151
97 152 4 0 17 -18 28 -41 12 -22 51 -70 87 -105 36 -35 63 -64 59 -64 -4 0
-22 7 -41 14 -19 8 -35 11 -35 6 0 -10 80 -80 92 -80 15 0 8 -32 -13 -67 l-22
-34 -34 33 c-19 18 -45 52 -59 75 -14 24 -26 43 -27 43 -2 0 -1 -15 1 -34 2
-19 2 -41 -1 -48 -8 -23 -39 64 -46 132 l-7 65 -18 -40 c-12 -25 -21 -76 -25
-135 l-6 -95 -27 29 -28 29 0 -29 c0 -16 5 -46 10 -66 10 -34 7 -43 -30 -110
-22 -40 -59 -90 -81 -110 l-40 -37 35 -23 c24 -15 34 -28 30 -38 -41 -101 -44
-292 -7 -385 l21 -50 17 40 18 40 8 -57 c10 -69 40 -141 85 -205 l34 -48 0 38
c0 45 10 47 33 7 17 -29 51 -60 187 -172 35 -30 84 -78 107 -106 49 -60 54
-54 17 21 -34 68 -80 132 -170 238 -88 102 -111 150 -127 265 -14 97 -23 98
-56 3 l-18 -54 -13 60 c-8 37 -10 95 -7 153 3 50 4 92 1 92 -2 0 -23 -17 -45
-37 l-42 -38 8 45 c10 66 41 130 83 173 41 42 52 46 52 17 0 -10 9 -44 20 -74
20 -53 22 -55 71 -65 56 -12 117 -41 168 -80 19 -14 31 -19 26 -11 -36 62 -72
102 -114 128 -49 30 -65 57 -73 122 -3 21 3 27 37 38 25 9 64 12 103 9 34 -3
62 -3 62 -1 0 1 -4 14 -10 28 -13 36 2 32 39 -9 39 -45 67 -100 77 -150 10
-58 42 -141 60 -156 23 -19 49 19 69 101 28 110 44 147 86 194 42 47 68 62 49
27 -18 -35 -12 -40 45 -34 32 3 73 0 101 -7 l46 -13 -6 -38 c-10 -59 -24 -82
-71 -111 -24 -14 -60 -48 -79 -75 -40 -55 -47 -76 -13 -46 38 34 89 60 152 78
33 10 65 22 71 27 7 5 20 38 29 73 10 36 21 65 25 65 13 0 69 -67 89 -108 12
-24 25 -66 28 -93 l6 -49 -37 35 c-21 19 -41 35 -45 35 -4 0 -4 -34 1 -76 5
-45 4 -101 -2 -138 -5 -33 -10 -64 -10 -68 0 -17 -20 -7 -20 10 0 21 -39 107
-45 100 -3 -2 -10 -40 -16 -84 -15 -109 -41 -163 -127 -263 -92 -106 -146
-186 -178 -258 l-25 -56 70 75 c39 42 109 106 155 143 46 36 97 85 113 107
l28 42 5 -40 5 -39 34 45 c44 59 68 116 83 197 l12 67 17 -39 17 -39 15 36
c41 97 47 230 17 343 -17 65 -17 71 -2 82 61 44 59 39 25 56 -20 11 -50 47
-86 107 -48 77 -55 94 -47 118 4 15 11 45 14 66 l5 39 -28 -27 -28 -27 -6 83
c-3 46 -14 106 -23 133 l-18 50 -8 -60 c-8 -62 -34 -145 -46 -145 -4 0 -6 21
-4 48 l4 47 -40 -60 c-21 -33 -48 -68 -59 -78 -19 -16 -20 -16 -36 0 -15 17
-41 74 -35 77 40 22 90 60 98 75 10 19 9 20 -25 6 -59 -25 -58 -17 8 45 35 33
75 80 88 105 13 25 28 44 34 42 19 -7 73 -86 90 -134 9 -26 20 -55 23 -63 4
-8 8 15 10 51 4 89 -24 162 -90 234 -27 30 -53 55 -57 55 -3 0 -19 -23 -36
-51 -36 -61 -135 -166 -190 -202 -39 -26 -42 -26 -127 -17 -54 6 -119 7 -174
1 -88 -9 -89 -9 -135 20 -57 36 -133 116 -184 192 -21 31 -39 57 -41 57 -2 0
-22 -18 -43 -39z"/>
<path d="M938 1359 c-16 -9 -17 -13 -3 -39 21 -41 53 -60 102 -60 35 0 46 -5
67 -32 l26 -33 0 30 c0 41 -33 109 -61 129 -26 18 -104 21 -131 5z m72 -41
c15 -19 20 -20 34 -9 9 8 20 11 23 7 10 -10 -17 -26 -42 -26 -24 0 -45 18 -45
37 0 19 9 16 30 -9z"/>
<path d="M1425 1348 c-31 -24 -55 -75 -55 -115 l1 -28 22 28 c18 21 31 27 60
27 71 0 137 58 107 95 -20 24 -101 20 -135 -7z m88 -25 c-4 -10 -11 -21 -17
-25 -16 -11 -54 -9 -61 3 -11 17 3 23 21 8 14 -12 19 -11 33 8 19 27 33 30 24
6z"/>
<path d="M901 1056 c-9 -11 -7 -15 8 -19 12 -3 31 -29 49 -68 16 -35 37 -71
47 -79 17 -14 17 -13 8 5 -6 11 -14 47 -18 80 -4 33 -11 68 -16 78 -12 21 -62
23 -78 3z"/>
<path d="M1520 1055 c-6 -8 -15 -43 -20 -77 -4 -35 -11 -72 -16 -83 -7 -20 -7
-20 14 -2 11 11 29 41 39 69 10 28 28 59 41 69 13 10 21 23 17 29 -9 15 -61
12 -75 -5z"/>
<path d="M1193 1028 c-18 -6 -33 -14 -33 -17 0 -3 27 -7 60 -8 80 -2 117 -22
42 -23 -61 0 -112 -22 -112 -48 0 -25 20 -42 48 -42 13 0 20 -4 17 -10 -3 -5
-18 -10 -32 -10 -21 0 -24 -2 -13 -15 7 -8 21 -15 31 -15 24 0 24 -12 1 -33
-21 -19 -92 -23 -123 -7 -30 17 -23 -6 11 -32 17 -13 49 -38 71 -55 29 -24 51
-33 77 -33 59 0 67 14 17 28 -50 13 -55 21 -25 40 17 10 26 10 51 -4 43 -22
104 -10 142 28 32 31 31 46 -1 29 -30 -16 -94 -13 -120 5 -29 20 -28 32 5 36
14 2 29 9 31 17 3 8 0 11 -5 8 -6 -4 -19 0 -29 8 -18 14 -18 14 8 15 18 0 33
9 43 24 53 80 -49 150 -162 114z"/>
</g>
</svg>
